<svg xmlns="http://www.w3.org/2000/svg" xmlns:xlink="http://www.w3.org/1999/xlink" width="197" height="459" viewBox="0 0 197 459"><defs><style>.a{fill:#fff;stroke:#707070;opacity:0.175;}.b{clip-path:url(#a);}.c{fill:#ffeae9;}.d{fill:#191847;}.e{fill:#ba8b72;}.f{fill:#d4a181;}.g{fill:#ffb0a8;}.h{fill:#ffd3cf;}.i{fill:#2026a2;}.j{fill:#1f28cf;}</style><clipPath id="a"><rect class="a" width="197" height="459" transform="translate(945 50)"/></clipPath></defs><g class="b" transform="translate(-945 -50)"><g transform="translate(877 26)"><g transform="translate(229.138 473.658) rotate(-167)"><g transform="matrix(0.995, -0.105, 0.105, 0.995, 71.057, 337.345)"><g transform="translate(6.954)"><path class="c" d="M0,4.4,15.657,42.942c-3.8,6.471-5.829,13.938-3.925,21.567,5.487,21.984,35.61,11.623,39.656-.674s-1.694-40.669-9.838-41.3c-3.248-.253-9.52,2.875-15.54,8.123L24.964,0Z"/></g><path class="d" d="M9.109,36.537a7.922,7.922,0,0,0-1.094,3.309,31.042,31.042,0,0,0-.436,3.616c-.112,2.432.358,5.123,2.347,6.646a7.972,7.972,0,0,0,5.6,1.335,9.7,9.7,0,0,0,3.6-1.118c1.106-.593,1.983-1.541,3.038-2.219a15.109,15.109,0,0,0,3.044,7,7.4,7.4,0,0,0,6.052,2.584,10.929,10.929,0,0,0,6.377-2.5c.465-.369.923-.75,1.352-1.166a4.3,4.3,0,0,1,1.184-.952c.512-.219.831.042,1.246.37a8.839,8.839,0,0,0,1.564.977,8.076,8.076,0,0,0,7.668-.033A7.023,7.023,0,0,0,53.3,51.664c.532-1.03.772-2.558,1.616-3.359.358-.34.707-.035,1.123.163.624.3,1.23.64,1.859.926a7.649,7.649,0,0,0,2.76.7c1.393.074,3.229-.325,3.3-2.145a7.345,7.345,0,0,0-.37-2.023c-.224-.9-.451-1.8-.691-2.694a20.02,20.02,0,0,0-.625-1.988,3.024,3.024,0,0,1-.378-1.374c.114-.487,1.053-.387,1.432-.47a5.9,5.9,0,0,0,2.124-.875,2.414,2.414,0,0,0,1.119-1.473,2.256,2.256,0,0,0-.168-1.17,3.523,3.523,0,0,1-.14-1.206c1.1.32,4.807.81,4.929-1.084a2.884,2.884,0,0,0-.76-1.719,15.82,15.82,0,0,0-2.076-2.2,22.615,22.615,0,0,0-5.1-3.46,2.9,2.9,0,0,0-.1-4.915,3.593,3.593,0,0,0-2.732-.3,5.835,5.835,0,0,1-1.059.275,2.609,2.609,0,0,0-.516-.078,14.711,14.711,0,0,0-3.9,1.209,13.346,13.346,0,0,0-5.518,4.251,1.9,1.9,0,0,1-1.292.894c-.524.087-1.062.034-1.587.113a11.4,11.4,0,0,0-3.719,1.78,14.986,14.986,0,0,0-2.2-4.977c-.8-1.17-2.043-1.142-3.249-1.044-3.858.312-7.6,1.382-11.4,2.047,3.532-1.48,7.272-2.493,10.745-4.114,1.57-.733.116-1.622-.725-2.267A13.593,13.593,0,0,1,32.6,15.061c-1.386,2.663-4.294,4.769-7.239,4.545-3.254-.247-6.188-4.071-4.731-7.449.846-1.961,2.814-3.007,4.417-4.068-1.6-1.17-2.3-3.192-3.422-4.8a3.809,3.809,0,0,0-2.244-1.813,2.216,2.216,0,0,1-1.055-.218C17.939.978,17.8.616,17.329.4a4.684,4.684,0,0,0-5.637,1.448c-1.089,1.594-.364,3.685.989,4.868-1.636,1.047-4.687,2.561-3.5,5.189C5.4,12.834-2.8,20.678,3.138,24.307.6,26.4-1.3,30.747,1.113,33.86c1.86,2.4,5.311,3.006,8,2.677" transform="translate(0 37.301)"/></g><g transform="translate(0)"><path class="e" d="M0,230.479,38.218,98.838,56.194,0H74.236L56.226,230.479Z" transform="translate(45.907 18.772)"/><path class="f" d="M26.056,232.564c2.667-68.387,1.615-105.687,1.018-111.9S23.089,72.839,0,0H18.766C49.344,69.877,60.018,111.489,63.525,120.664s13.865,46.476,28.987,111.9Z" transform="translate(2.675 16.686)"/><path class="g" d="M0,216.921Q14.912,148.974,51.582,0H77.971c1.949,101.938-6.342,169.031-20.7,216.921Z" transform="translate(45.086 32.33)"/><path class="h" d="M25.123,217.986C27.735,149.6,20.966,82.225,0,0H28.156c30.634,68.834,52.591,135.875,67.6,217.986Z" transform="translate(3.475 31.265)"/><g transform="translate(0 0)"><path class="d" d="M0,3.129.98,18.922a1.043,1.043,0,0,0,.946.974l21.889,2L61.354,7.971a2.086,2.086,0,0,0,1.281-2.524L61.09,0H2.071Z" transform="translate(0)"/></g><g transform="translate(98.073 0)"><path class="d" d="M0,3.129.98,18.922a1.043,1.043,0,0,0,.946.974l21.889,2L61.354,7.971a2.086,2.086,0,0,0,1.281-2.524L61.09,0H2.071Z" transform="translate(0 0)"/></g></g><g transform="matrix(0.985, -0.174, 0.174, 0.985, 10.401, 197.67)"><path class="c" d="M58.761,15.557,72.909,26.921S74,40.043,78.567,40.931c1.086.759,1.06-1.729,1.314-4.167.252-2.4.775-4.755,2.9-3.911,4.291,1.7,13.732,11.694,15.894,10.385,3.2-1.938,2.041-9.824-.215-14.043-4.217-7.886-8.3-11.049-18.885-16.113C71.279,9.109,62.424,0,62.424,0ZM0,22.182,32.221,48A89.567,89.567,0,0,0,46.859,67.488c1.629,1.044,4.627,2.03,2.65-3.579s-3.8-11.6-2.06-12.915c.765-.577,1.825-.352,2.96-.114,1.448.3,3.019.628,4.258-.663q2.209-2.3-17.273-11.556L15.661,10.374Z" transform="matrix(0.985, -0.174, 0.174, 0.985, 85.478, 105.804)"/><path class="i" d="M3.948,23.436A89.01,89.01,0,0,1,51.339,38.528L58.7,22.855C46.47,10.29,29.145-.161,13.834,0,1.768.13-4.65,14.6,3.948,23.436Z" transform="matrix(1, -0.017, 0.017, 1, 67.337, 108.701)"/><path class="j" d="M39.238,3.542C26.4,2.959,14.444,2.531,7.9,0-10.387,35.7,9.392,55,5.151,79.161.507,105.615,14.576,150.076,17.7,150.627l28.51,5.027c5.132-19.913,16.966-40.771,27.338-61.609C95.1,93,138.219,117.474,138.219,117.474S154.068,95.5,155,85.123c-24.315-18.705-46.165-28.986-65-32.731,2.578-11.109,3.094-22.022.226-32.581-2.146-7.9-11.258-11.756-22.847-13.8C58.749,4.491,48.752,3.974,39.238,3.542Z" transform="matrix(0.985, -0.174, 0.174, 0.985, 0, 26.915)"/></g></g></g></g></svg>