<svg xmlns="http://www.w3.org/2000/svg" xmlns:xlink="http://www.w3.org/1999/xlink" width="319.463" height="487.537" viewBox="0 0 319.463 487.537"><defs><style>.a{fill:#fff;stroke:#707070;opacity:0.063;}.b{clip-path:url(#a);}.c{fill:#b28b67;}.d{fill:#191847;}.e{fill:#997659;}.f{fill:#e4e4e4;}.g{fill:#2026a2;}.h{fill:#1f28cf;}.i{fill:#ffb0a8;}.j{fill:#dde3e9;}.k{fill:#ffd3cf;}.l{fill:rgba(0,0,0,0.1);}</style><clipPath id="a"><path class="a" d="M0,0H319.463V487.538H0Z" transform="translate(564.851 235.608)"/></clipPath></defs><g class="b" transform="translate(-564.851 -235.608)"><g transform="translate(456 191)"><g transform="matrix(-0.978, 0.208, -0.208, -0.978, 445.845, 486.152)"><g transform="matrix(-0.966, 0.259, -0.259, -0.966, 241.587, 475.349)"><g transform="matrix(0.966, -0.259, 0.259, 0.966, 0, 19.036)"><path class="c" d="M0,80.716,21.783,38.2c-3.708-7.785-5.287-16.531-2.345-25.068,8.48-24.6,41.956-9.717,45.365,4.758s-6,46.355-15.392,46.262C45.664,64.114,38.791,59.9,32.418,53.3L28.161,88.261Z" transform="translate(0)"/></g><path class="d" d="M40.625,8.876c-3.97,2.093-6.741,6.158-10.094,11.531A7.031,7.031,0,0,0,23.037,31.98c-1.629,2.3-3.455,4.694-5.547,7.168C9.631,34.44,3.8,20.659,11.483,7.421,13.607.935,18.415-2.529,24.093-4.137A20.454,20.454,0,0,1,37.5-5.123c7.9.677,14.957,3.082,16.956,4.511,0,7.468-1.449,9.684-13.83,9.489Z" transform="matrix(0.966, -0.259, 0.259, 0.966, 5.658, 20.372)"/></g><g transform="translate(21.503 0)"><path class="e" d="M115.4,278.038,55.779,127.374,15.791,0H0L61.133,278.038Z" transform="translate(45.932 11.825)"/><path class="c" d="M59.381,223.083c.635-52.944,9.894-124.225,11.373-127.526S172.887,11.62,172.887,11.62L162.011,0S43.249,69.136,37.753,78.358,14.365,172.432,0,223.083Z" transform="translate(113.958 66.779)"/><g transform="translate(271.541 108.022) rotate(-130)"><path class="f" d="M1.078,38.4a2.243,2.243,0,0,0-.691,3.176l4.4,6.487a72.051,72.051,0,0,0,7.432,4.917L52.882,4.518s-4.66-7.129-8.572-3.477-6.573,6.007-6.573,6.007L8.8,21.146a1.122,1.122,0,0,0-.5,1.528l2.3,4.395s-1.4,5.242-3.38,7.6Z" transform="translate(40.582 0) rotate(50)"/></g><g transform="translate(0 0)"><path class="f" d="M64.793,19.365a2.43,2.43,0,0,0,3.116-1.635l2.318-8.155A77.794,77.794,0,0,0,69.133,0H.619S-2.052,8.815,3.7,9.518s9.56,1.269,9.56,1.269L45.106,24.961a1.215,1.215,0,0,0,1.618-.645l2.047-4.957s5.327-2.481,8.657-2.481Z"/></g><path class="g" d="M75.076,0,0,8.135,55.641,264.918h67.243Z" transform="translate(46.17 24.944)"/><path class="h" d="M163.187,58.2,113.941,0s-77.8,84.841-90.72,110.718S0,250.914,0,250.914H75.7S81.333,150.34,83.293,145.66,163.187,58.2,163.187,58.2Z" transform="translate(108.129 38.948)"/></g><g transform="matrix(-0.985, 0.174, -0.174, -0.985, 314.59, 403.765)"><path class="c" d="M1.021,95.743c-1.19-1.057-2.106-4.41,1.853-6.206,9.865-4.473,24.409-12.783,26.735-15.953C34.366,67.1,58.507,0,58.507,0L83.489,4.507S47.177,75.049,44.526,79.29c-3.976,6.361.043,17.826,1.559,23.873-4.259,1.068-5.7-1.508-7.308-4.114-1.717-2.778-3.633-5.591-9.379-4.06-7.352,1.958-13.854,5.978-20.551,4.8A15.8,15.8,0,0,1,1.021,95.743ZM228.114,66.509,193.085,44.2,205.19,24.869l33.227,34.705q14.787,6.92,24.1,14.982c1.378,1.781,2.827,5.153-3.883,3.432s-13.846-3.232-15.194-1.081,2.281,5.647-.168,8.438a.916.916,0,0,1-.906.3Q239.017,85.054,228.114,66.509Z" transform="matrix(0.985, -0.174, 0.174, 0.985, 0, 135.251)"/><path class="i" d="M1.423.876,12.043,0c35.9,36.882,46.214,102.608,90.822,140.849L90.17,154.023C8.5,136.594-5.094,56.337,1.423.876Z" transform="matrix(0.996, -0.087, 0.087, 0.996, 128.265, 17.994)"/><path class="j" d="M0,130.218l91.53,16.139c4.182.737,4.458-5.431,4.389-8.58-.786-36.346-21.35-79-12.536-128.988L57.71,0C29.69,31.215,14.526,73.056,0,130.218Z" transform="matrix(0.985, -0.174, 0.174, 0.985, 61.357, 22.297)"/><path class="k" d="M0,183.167C9.909,114.62,45.013,66.716,72.227,38.9c-4.744-1.19-8.726-3.961-10.6-9.383C55.046,10.431,60.218,1.474,71.086.146S90.007,6.92,106.438,9.818a13.026,13.026,0,0,1,1.934.485l8.673,2.044s14.347,126.631-8.7,164.063L36,163.653A232.574,232.574,0,0,1,19.63,186.628Z" transform="matrix(0.985, -0.174, 0.174, 0.985, 9.646, 21.091)"/><path class="l" d="M27.04,45.551h0L0,40.783C7.056,29.767,15.116,16.046,23.955,0c-1.282,21.469-.246,36.794,3.084,45.549Z" transform="matrix(0.985, -0.174, 0.174, 0.985, 66.436, 135.842)"/></g></g></g></g></svg>