<svg xmlns="http://www.w3.org/2000/svg" width="132.987" height="154.561" viewBox="0 0 132.987 154.561">
  <g id="グループ_2523" data-name="グループ 2523" transform="translate(-882.808 -444.672)">
    <g id="グループ_2520" data-name="グループ 2520" transform="translate(882.808 444.672)">
      <path id="パス_8038" data-name="パス 8038" d="M66.494,0A66.494,66.494,0,1,1,0,66.494,66.494,66.494,0,0,1,66.494,0Z" transform="translate(0 0)" fill="#ffd3cf"/>
      <g id="グループ_2519" data-name="グループ 2519" transform="translate(41.654 21.047)">
        <path id="パス_8037" data-name="パス 8037" d="M366.242,117c0-14.146,14.591-20.607,18.6-27.959a19.058,19.058,0,0,0,2.451-9.133c0-10.916-8.242-13.478-12.7-13.478-8.91,0-12.586,7.351-13.478,10.359-.557,2.228-3.119,3.342-5.68,3.342-3.008,0-6.127-1.672-6.127-5.348,0-4.121,6.8-19.492,25.174-19.492,13.144,0,24.506,9.133,24.506,24.394a30.958,30.958,0,0,1-2.229,11.139c-4.009,10.025-18.6,15.707-18.6,25.844a6.2,6.2,0,0,1-6.238,6.459C369.025,123.13,366.242,121.124,366.242,117Zm6.014,29.184a7.715,7.715,0,0,1-7.686-7.351c0-4.9,4.678-7.686,7.686-7.686,4.344,0,7.685,2.672,7.685,7.686C379.941,144.183,375.263,146.188,372.257,146.188Z" transform="translate(-349.31 -55.294)" fill="#4960fa"/>
      </g>
    </g>
    <path id="パス_8039" data-name="パス 8039" d="M478.087,70.13a44.359,44.359,0,0,0,34.443,30.185c-2.168-.358-5.147-4.709-6.311-6.379a25.524,25.524,0,0,1-3.928-8.561c-1.647-6.913-2.871-13.781-1.463-20.883" transform="translate(474.381 498.919)" fill="#ffd3cf"/>
  </g>
</svg>
