<svg xmlns="http://www.w3.org/2000/svg" width="258.52" height="156.474" viewBox="0 0 258.52 156.474"><defs><style>.a{fill:#fff;}</style></defs><path class="a" d="M213.377,508.466H165.3a1.629,1.629,0,0,0-1.607,1.348l-2.117,12.005a1.634,1.634,0,0,0,1.608,1.916H189.99a1.632,1.632,0,0,1,1.607,1.916l-9.416,53.4a1.632,1.632,0,0,1-1.607,1.348H152.615a1.63,1.63,0,0,0-1.607,1.349l-2.117,12.005a1.634,1.634,0,0,0,1.608,1.916h48.077a1.63,1.63,0,0,0,1.608-1.349l14.8-83.938a1.632,1.632,0,0,0-1.607-1.916Z" transform="translate(-148.866 -439.195)"/><path class="a" d="M421.075,522.387l2.117-12a1.633,1.633,0,0,0-1.607-1.916h-17.12a1.63,1.63,0,0,0-1.607,1.348L400.74,521.82a1.635,1.635,0,0,0,1.607,1.916h17.12A1.629,1.629,0,0,0,421.075,522.387Z" transform="translate(-193.541 -439.195)"/><path class="a" d="M417.176,533.467h-17.12a1.63,1.63,0,0,0-1.607,1.348l-2.117,12.005a1.633,1.633,0,0,0,1.607,1.916h17.12a1.63,1.63,0,0,0,1.607-1.349l2.117-12a1.635,1.635,0,0,0-1.607-1.916Z" transform="translate(-192.759 -443.63)"/><path class="a" d="M448.986,523.579A1.626,1.626,0,0,0,447.74,523H436.86a1.625,1.625,0,0,0-1.59,1.264l-.333,1.437c-2.523,10.913-5.382,23.281-12.093,29.976-7.545,7.527-23.16,11.867-31.068,11.99a1.632,1.632,0,0,0-1.584,1.36l-4.613,27.315a1.632,1.632,0,0,0,1.609,1.9h.019c10.031-.111,30.13-5.083,41.358-17.952,5.05-5.789,9.926-15.625,14.1-28.447a200,200,0,0,0,6.683-26.942A1.625,1.625,0,0,0,448.986,523.579Z" transform="translate(-190.851 -441.773)"/><path class="a" d="M375.889,522.01a1.625,1.625,0,0,0-1.276-.615H347.8a1.633,1.633,0,0,1-1.607-1.916l1.6-9.1a1.631,1.631,0,0,0-1.607-1.915H328.815a1.63,1.63,0,0,0-1.607,1.348l-1.8,10.233A1.632,1.632,0,0,1,323.8,521.4h-4.777a1.63,1.63,0,0,0-1.607,1.349l-2.117,12.005a1.631,1.631,0,0,0,1.607,1.916h3.625a1.631,1.631,0,0,1,1.607,1.916l-9.728,55.171a1.633,1.633,0,0,0,1.607,1.916h17.379A1.63,1.63,0,0,0,333,594.32l9.929-56.3a1.632,1.632,0,0,1,1.607-1.349h10.241a1.632,1.632,0,0,1,.959,2.953,16.642,16.642,0,0,1-7.877,3.368,1.633,1.633,0,0,0-1.466,1.352l-2.7,15.838a1.632,1.632,0,0,0,1.609,1.906c.039,0,.079,0,.128,0,6.2-.485,15.24-4.188,20.449-11.169,5.09-6.821,8.651-20.169,10.321-27.519A1.623,1.623,0,0,0,375.889,522.01Z" transform="translate(-177.871 -439.195)"/><path class="a" d="M290.414,535.321h-8.086a1.624,1.624,0,0,0-1.589,1.263l-.211.907c-2.024,8.75-4.317,18.668-9.7,24.037-3.583,3.575-8.924,5.878-12.773,7.18a1.632,1.632,0,0,1-2.13-1.83l9.961-56.5a1.632,1.632,0,0,0-1.607-1.916H246.9a1.629,1.629,0,0,0-1.607,1.348l-14.8,83.939a1.633,1.633,0,0,0,1.607,1.916h8.806a1.6,1.6,0,0,0,.165-.008c.052,0,.188-.007.2-.007q.336.01.69.01a43.045,43.045,0,0,0,9.087-1.145c4.8-1.087,16.78-4.554,24.365-13.248,8.9-10.206,14.755-33.27,16.605-44.041a1.632,1.632,0,0,0-1.608-1.908Z" transform="translate(-163.341 -439.195)"/><path class="a" d="M386.919,478.553a13.269,13.269,0,0,0,7.39,2.136,15.539,15.539,0,0,0,4.521-.68,22.058,22.058,0,0,0,9.662-6.43,1.851,1.851,0,0,0-2.719-2.513,18.455,18.455,0,0,1-8.02,5.4,10.45,10.45,0,0,1-8.774-.99c-4.879-3.273-3.1-8.494-.053-15.512.31-.714.611-1.407.885-2.07a111.369,111.369,0,0,0,7-24.905,1.851,1.851,0,0,0-3.655-.585,107.7,107.7,0,0,1-6.764,24.078c-.266.644-.557,1.316-.859,2.009C382.971,464.392,379.1,473.309,386.919,478.553Z" transform="translate(-190.27 -425.426)"/><path class="a" d="M222.657,476.8c-4.968-.216-8.515-5.461-8.711-10.222-.188-4.561,1.834-9.481,6.009-14.624a49.558,49.558,0,0,1,5.192-5.484q3.982-.078,7.965-.459a10.057,10.057,0,0,0,4.255-1.124,4.524,4.524,0,0,0-2.534-8.567,9.543,9.543,0,0,0-4.71,1.762,53.014,53.014,0,0,0-6.394,4.705,100.963,100.963,0,0,1-22.763-2.421,1.851,1.851,0,1,0-.8,3.614,105.594,105.594,0,0,0,19.712,2.464q-1.457,1.528-2.8,3.177c-4.76,5.864-7.059,11.619-6.833,17.109.336,8.188,6.62,13.523,12.248,13.768l.082,0a1.851,1.851,0,0,0,.079-3.7Zm9.432-35.581a6.489,6.489,0,0,1,2.876-1.2l.054,0c.587,0,1.145.337,1.2.628a1.292,1.292,0,0,1-.726,1.048,6.875,6.875,0,0,1-2.735.631q-1.34.13-2.681.221Q231.066,441.858,232.089,441.216Z" transform="translate(-157.708 -426.396)"/><path class="a" d="M250.171,432.292a2.332,2.332,0,0,1,1.583,2.374,1.851,1.851,0,1,0,3.675.44,6.016,6.016,0,0,0-4.253-6.376,1.851,1.851,0,1,0-1.005,3.562Z" transform="translate(-166.597 -425.038)"/><path class="a" d="M255.75,427.89a2.932,2.932,0,0,1,1.991,2.985,1.851,1.851,0,0,0,1.618,2.058,2.025,2.025,0,0,0,.222.012,1.851,1.851,0,0,0,1.835-1.63,6.594,6.594,0,0,0-4.661-6.987,1.851,1.851,0,1,0-1.005,3.562Z" transform="translate(-167.586 -424.257)"/><path class="a" d="M256.357,480.74a1.85,1.85,0,0,0,1.448,1.31,1.889,1.889,0,0,0,.331.03,1.852,1.852,0,0,0,1.486-.747l5.706-7.683a1.851,1.851,0,1,0-2.971-2.208l-3.043,4.1c-.072-5.446,2.365-11.037,4.921-15.972q.474-.917.958-1.837c3.3-6.287,6.7-12.79,6.583-20.08a1.883,1.883,0,0,0-1.88-1.82,1.852,1.852,0,0,0-1.82,1.881c.1,6.346-3.081,12.424-6.161,18.3q-.487.929-.967,1.852C257.395,464.722,254.072,472.8,256.357,480.74Z" transform="translate(-167.8 -426.31)"/><path class="a" d="M301.911,436.946a3.956,3.956,0,0,0-3.314-.779,5.823,5.823,0,0,0-3.807,3.047,15.57,15.57,0,0,0-1.427,5.692,15.577,15.577,0,0,1-7.855-1.867,1.851,1.851,0,0,0-1.757,3.258,19.227,19.227,0,0,0,9.136,2.317h.052a66.728,66.728,0,0,1-6.382,21.941q-.21.431-.435.871a13.848,13.848,0,0,0-3.817-1.613,8.83,8.83,0,0,0-5.446.138A6.159,6.159,0,0,0,273,475.1a5.121,5.121,0,0,0,2.84,5.274c2.968,1.426,7.488.364,9.546-1.537a14.545,14.545,0,0,0,1.857-2.112l.145.109c2.657,2.018,5.649,4.291,9.673,4.291.222,0,.449-.007.678-.021a1.851,1.851,0,0,0-.231-3.694c-3,.176-5.26-1.532-7.881-3.522l-.441-.335c.243-.464.475-.923.693-1.37a70.815,70.815,0,0,0,6.836-23.955q.438-.09.874-.2c2.2-.557,5.741-3.018,6.388-6.011A4.943,4.943,0,0,0,301.911,436.946Zm-19.032,39.17c-.948.875-3.879,1.665-5.433.921-.436-.21-.828-.558-.749-1.677a2.463,2.463,0,0,1,1.528-1.969,3.662,3.662,0,0,1,1.363-.234,7.85,7.85,0,0,1,1.84.253,10.23,10.23,0,0,1,2.786,1.19A10.678,10.678,0,0,1,282.879,476.117Zm17.482-34.881c-.242,1.121-1.97,2.506-3.2,3.034a10.008,10.008,0,0,1,.891-3.314,2.274,2.274,0,0,1,1.29-1.163.524.524,0,0,1,.1-.012.215.215,0,0,1,.154.059C300.506,440.561,300.4,441.034,300.361,441.235Z" transform="translate(-170.883 -426.355)"/><path class="a" d="M316.03,438.264a2.33,2.33,0,0,1,1.584,2.373,1.853,1.853,0,0,0,1.617,2.059,2.063,2.063,0,0,0,.223.012,1.852,1.852,0,0,0,1.836-1.63,6.018,6.018,0,0,0-4.252-6.377,1.851,1.851,0,0,0-1.008,3.562Z" transform="translate(-178.279 -426.098)"/><path class="a" d="M321.609,433.863a2.929,2.929,0,0,1,1.991,2.984,1.851,1.851,0,0,0,3.676.441,6.593,6.593,0,0,0-4.661-6.987,1.851,1.851,0,0,0-1.006,3.563Z" transform="translate(-179.269 -425.317)"/><path class="a" d="M325.8,450.576a1.851,1.851,0,0,0,.593,2.549,12.675,12.675,0,0,0,8.554,1.57c-3.72,7.534-7.172,16.386-4.788,25.047a1.851,1.851,0,0,0,1.783,1.361,1.819,1.819,0,0,0,.492-.067,1.85,1.85,0,0,0,1.293-2.275c-2.066-7.51,1.166-15.615,4.6-22.55q.5-1.014,1.015-2.033.2-.4.4-.808c1.5-.6,2.947-1.305,4.353-2,1.334-.655,2.594-1.273,3.9-1.8,3.571-1.451,6.49-1.708,8.928-.784,2.478.94,4.9,3.87,4.5,6.967a3.84,3.84,0,0,1-1.775,2.738,8.929,8.929,0,0,1-6.722,1.034,1.851,1.851,0,0,0-.911,3.587,12.08,12.08,0,0,0,2.961.356,12.314,12.314,0,0,0,6.752-1.916,7.49,7.49,0,0,0,3.368-5.324c.642-4.954-2.984-9.434-6.861-10.9-3.305-1.254-7.22-.979-11.635.815-1.421.577-2.8,1.254-4.132,1.908l-.206.1c2.312-5.094,4.126-10.394,4.036-16.122a1.851,1.851,0,0,0-1.85-1.822h-.03a1.852,1.852,0,0,0-1.822,1.88c.1,6.348-2.594,12.425-5.507,18.313-.015,0-.029.012-.044.016-2.39.786-5.838,1.347-8.7-.431A1.853,1.853,0,0,0,325.8,450.576Z" transform="translate(-180.202 -425.313)"/><path class="a" d="M358.263,442.552a1.841,1.841,0,0,0,.918-.245,9.14,9.14,0,0,0,4.51-7.573,1.85,1.85,0,0,0-1.807-1.894h-.044a1.85,1.85,0,0,0-1.849,1.807,5.443,5.443,0,0,1-2.649,4.448,1.851,1.851,0,0,0,.921,3.457Z" transform="translate(-185.682 -425.78)"/><path class="a" d="M419.527,456.089a1.22,1.22,0,0,0,.474-.1c3.58-1.493,7.779-5.883,9.141-8.81a1.233,1.233,0,1,0-2.236-1.041,19.015,19.015,0,0,1-7.854,7.574,1.234,1.234,0,0,0,.475,2.373Z" transform="translate(-196.658 -428.013)"/><path class="a" d="M425.015,461.019a1.233,1.233,0,0,0,1.224,1.094,1.351,1.351,0,0,0,.141-.007c5.81-.664,13.735-5.152,16.96-9.6a1.234,1.234,0,1,0-2-1.448c-2.784,3.844-10.19,8.024-15.241,8.6A1.233,1.233,0,0,0,425.015,461.019Z" transform="translate(-197.85 -428.92)"/><path class="a" d="M432.888,476.72a1.234,1.234,0,0,0,.755-2.211,20.752,20.752,0,0,0-11.557-4.171,1.234,1.234,0,1,0-.123,2.464,18.526,18.526,0,0,1,10.172,3.66A1.229,1.229,0,0,0,432.888,476.72Z" transform="translate(-197.102 -432.431)"/><path class="a" d="M186.594,455.4a1.212,1.212,0,0,0,.572.141,1.234,1.234,0,0,0,.574-2.326c-2.907-1.523-6.589-6.374-7.7-9.374a1.234,1.234,0,1,0-2.314.856C179.039,448.245,183.11,453.576,186.594,455.4Z" transform="translate(-153.971 -427.588)"/><path class="a" d="M182.261,463.366a13.47,13.47,0,0,0,1.584-.089,1.234,1.234,0,0,0-.293-2.451c-4.905.588-13.177-2.508-17.024-6.367a1.234,1.234,0,1,0-1.747,1.743C168.828,460.261,176.589,463.366,182.261,463.366Z" transform="translate(-151.625 -429.551)"/><path class="a" d="M176.212,474.335a1.234,1.234,0,0,0,1.718,1.771,15.8,15.8,0,0,1,9.81-4.452,1.234,1.234,0,0,0-.156-2.464A18.049,18.049,0,0,0,176.212,474.335Z" transform="translate(-153.65 -432.227)"/></svg>