<svg xmlns="http://www.w3.org/2000/svg" width="174.001" height="110.702" viewBox="0 0 174.001 110.702"><defs><style>.a{fill:#fff;}.b{fill:#4960fa;}</style></defs><path class="a" d="M-500.446-519.084C-515.654-510.928-535.41-506-557-506c-48.048,0-87-24.4-87-54.5s38.952-54.5,87-54.5,87,24.4,87,54.5c0,11.466-5.652,22.1-15.306,30.882l11.717,25.32Z" transform="translate(644 615)"/><path class="b" d="M-62.979-11.97V.14h.784V-11.242h3.5v-.728Zm15.12,9.282h-5.082c-.9,0-1.666-.014-2.38-.07a8.373,8.373,0,0,0,.042.9c.014.14.042.182.154.168.658-.028,1.386-.056,2.184-.056h5.082v.616c0,.168.028.182.2.182a5.606,5.606,0,0,0,.686,0c.14,0,.168-.028.168-.168-.014-.574-.042-1.526-.042-2.366V-6.524c0-.714.014-1.414.028-2.072.014-.168-.042-.21-.224-.21-.77.014-1.582.042-2.352.042h-3.556c-.826,0-1.428-.014-2.254-.084,0,.266.014.672.042.91.014.14.056.182.2.182.588-.042,1.2-.07,2.03-.07h5.082Zm6.216-6.132a14.536,14.536,0,0,1,2.66,2.072c.1.1.14.084.224-.014a5.649,5.649,0,0,0,.476-.6c.07-.112.056-.168-.042-.266a12.916,12.916,0,0,0-2.52-1.862.169.169,0,0,0-.252.028C-41.251-9.3-41.461-9.044-41.643-8.82Zm.336,7.35a5.256,5.256,0,0,0,.686.952.229.229,0,0,0,.378.014,5.219,5.219,0,0,1,.77-.546,29.074,29.074,0,0,0,4.2-2.73A25.845,25.845,0,0,0-31.871-7c.168-.2.182-.308.1-.49a4.19,4.19,0,0,1-.238-.924,21.849,21.849,0,0,1-3.78,3.766,23.764,23.764,0,0,1-4.046,2.6A7.81,7.81,0,0,1-41.307-1.47Zm15.694-6.412a4.686,4.686,0,0,1,.154-1.68c.07-.154.126-.336-.084-.392a8.382,8.382,0,0,0-1.148-.2,12.5,12.5,0,0,1,.126,2.478v5.208c0,.994.35,1.526,1.106,1.736a9.431,9.431,0,0,0,2.478.252,24.227,24.227,0,0,0,3.794-.238c.168-.014.224-.042.224-.2-.014-.182-.042-.448-.07-.672-.014-.126-.042-.168-.2-.14a21.054,21.054,0,0,1-3.556.308,10.208,10.208,0,0,1-2.1-.154c-.532-.112-.728-.35-.728-1.092V-5.068a35.741,35.741,0,0,0,4.844-1.68,7.781,7.781,0,0,1,1.288-.518c.182-.028.224-.21.112-.364a6.337,6.337,0,0,0-.812-.77,3.548,3.548,0,0,1-1.358.924A25.806,25.806,0,0,1-25.613-6.02Zm5.5-2a6.045,6.045,0,0,1,1.624,1.792.112.112,0,0,0,.182.028L-17.9-8.4a.1.1,0,0,0,.028-.154,6.794,6.794,0,0,0-1.582-1.694c-.056-.042-.084-.042-.154,0Zm1.232-.938a6.687,6.687,0,0,1,1.61,1.75c.056.084.112.084.168.028l.378-.336c.07-.056.084-.1.042-.168a8.047,8.047,0,0,0-1.6-1.638c-.056-.042-.1-.028-.154.014ZM-3.955-2.66c0-1.176.028-1.526.028-1.61s-.014-.1-.112-.1c-.07,0-.644.028-1.9.028h-4.228A19.438,19.438,0,0,0-5.649-8.764a1.931,1.931,0,0,1,.42-.42q.168-.084.168-.21c0-.084-.056-.182-.28-.392-.2-.182-.308-.238-.406-.238a.489.489,0,0,0-.168.042.826.826,0,0,1-.336.042H-9.919q.252-.315.5-.672a1.275,1.275,0,0,1,.378-.42c.084-.056.154-.112.154-.182s-.042-.112-.126-.154a6.682,6.682,0,0,0-.854-.294,2.9,2.9,0,0,1-.434.812,12.32,12.32,0,0,1-4.592,3.99,1.426,1.426,0,0,1,.42.406c.084.14.126.21.2.21a.629.629,0,0,0,.21-.1,14.582,14.582,0,0,0,3.528-2.842h4.13A20.71,20.71,0,0,1-9.177-6.132,12.607,12.607,0,0,0-11.109-7.6c-.1-.056-.126-.056-.238.056l-.308.28c-.126.126-.112.14-.014.21a10.208,10.208,0,0,1,1.82,1.484,18.663,18.663,0,0,1-5.32,2.884,1.379,1.379,0,0,1,.406.476c.14.252.14.252.392.154A28.087,28.087,0,0,0-11.319-3.6v2.114c0,1.96-.028,2.366-.028,2.436s.014.1.112.1h.672c.1,0,.112-.014.112-.1v-.8h5.614V.868c0,.1.014.112.112.112h.686c.1,0,.112-.014.112-.112,0-.07-.028-.406-.028-2.38ZM-4.837-.6h-5.614v-3h5.614Zm18.1-.224H9.317v-4.76h3.556v.672c0,.1.014.112.112.112h.658c.1,0,.112-.014.112-.112s-.028-.434-.028-1.288v-1.89a5.949,5.949,0,0,1,.084-1.33.9.9,0,0,0,.07-.238c0-.07-.07-.112-.168-.126a8.328,8.328,0,0,0-.938-.084,9.436,9.436,0,0,1,.1,1.75v1.75H9.317V-9.786a5.646,5.646,0,0,1,.084-1.33,1.424,1.424,0,0,0,.07-.252c0-.07-.07-.1-.168-.112a8.882,8.882,0,0,0-.966-.084,9.592,9.592,0,0,1,.1,1.792v3.4H5.145V-8.05a4.7,4.7,0,0,1,.084-1.274.688.688,0,0,0,.056-.252c0-.07-.056-.112-.154-.126a8.032,8.032,0,0,0-.938-.084,9.436,9.436,0,0,1,.1,1.75v1.9c0,.84-.028,1.176-.028,1.246,0,.1.014.112.112.112h.658c.1,0,.112-.014.112-.112v-.7h3.29v4.76h-3.7V-2.072a4.415,4.415,0,0,1,.1-1.26,1.074,1.074,0,0,0,.07-.238c0-.07-.084-.112-.182-.126a8.328,8.328,0,0,0-.938-.084,9.18,9.18,0,0,1,.1,1.736v1.68c0,.77-.028,1.078-.028,1.148,0,.1.014.112.112.112h.658c.1,0,.112-.014.112-.112V-.028h8.526v.77c0,.1.014.112.112.112h.672c.084,0,.1-.014.1-.112,0-.07-.028-.392-.028-1.19V-2.1A5.774,5.774,0,0,1,14.2-3.416a1.163,1.163,0,0,0,.07-.252c0-.056-.07-.1-.168-.112a8.032,8.032,0,0,0-.938-.084,9.267,9.267,0,0,1,.1,1.736Zm16.17.532c0-.1-.014-.112-.112-.112-.07,0-.35.028-1.274.028h-.112V-2.772c.728,0,.966.028,1.036.028.1,0,.112-.014.112-.112v-.532c0-.1-.014-.112-.112-.112-.07,0-.308.028-1.036.028V-5.558c.728,0,.966.028,1.036.028.1,0,.112-.014.112-.112v-.532c0-.1-.014-.112-.112-.112-.07,0-.308.028-1.036.028v-2h.07c.84,0,1.078.028,1.162.028s.112-.014.112-.126v-.518c0-.1-.014-.112-.112-.112s-.322.028-1.162.028h-.042c.2-.476.364-.98.518-1.47.1-.322.14-.392.224-.462a.2.2,0,0,0,.1-.168c0-.07-.1-.126-.182-.154a4.53,4.53,0,0,0-.672-.182,4.138,4.138,0,0,1-.126.784,12.125,12.125,0,0,1-.56,1.652H25.977a11.842,11.842,0,0,0,.6-1.526,1.866,1.866,0,0,1,.238-.56c.07-.084.1-.112.1-.182s-.056-.112-.14-.154a5.585,5.585,0,0,0-.742-.2,4.876,4.876,0,0,1-.182.966A9.831,9.831,0,0,1,24.241-7.2a.983.983,0,0,1,.35.224c.1.1.154.14.2.14s.1-.056.168-.182l.308-.532c-.014.476-.028,1.05-.028,1.5V-.714c0,1.232-.028,1.624-.028,1.694s.014.1.112.1h.518c.1,0,.112-.014.112-.1V.336h2.1c.924,0,1.2.028,1.274.028.1,0,.112-.014.112-.112ZM27.251-.378h-1.3V-2.772h1.3Zm0-3.094h-1.3V-5.558h1.3Zm0-2.786h-1.3v-2h1.3ZM19.649-8.3c0-1.554.028-1.988.028-2.072s-.014-.112-.126-.112c-.07,0-.238.028-.9.028h-.532c-.658,0-.826-.028-.91-.028s-.1.014-.1.112.028.56.028,2.45v1.778c0,2.66-.028,3.122-.028,3.178,0,.112.014.126.1.126h.49c.1,0,.112-.014.112-.126V-4.3h1.162v.882c0,.1.014.112.112.112h.462c.112,0,.126-.014.126-.112,0-.07-.028-.5-.028-2.982Zm-.672,3.234H17.815v-4.62h1.162Zm4.13,1.5c.98,0,1.274.028,1.358.028s.112-.014.112-.112v-.49c0-.112-.014-.126-.112-.126s-.378.028-1.358.028h-.364V-4.69a1.869,1.869,0,0,1,.042-.56.738.738,0,0,0,.07-.21c0-.07-.056-.1-.14-.112-.224-.028-.476-.056-.77-.07a4.734,4.734,0,0,1,.07,1.008v.392h-.364c-.98,0-1.274-.028-1.358-.028s-.112.014-.112.126v.49c0,.1.014.112.112.112s.378-.028,1.358-.028h.112A9.393,9.393,0,0,1,18.851-.588a1.993,1.993,0,0,1,.406.364c.1.126.14.182.2.182s.1-.042.2-.126a11.227,11.227,0,0,0,2.408-2.856c-.028,2.954-.07,3.752-.07,3.892,0,.1.014.112.112.112h.546c.1,0,.112-.014.112-.112,0-.14-.028-.938-.07-3.948a7.073,7.073,0,0,0,1.386,1.652c.084.07.126.112.168.112s.1-.056.182-.182a2.193,2.193,0,0,1,.28-.35A6.763,6.763,0,0,1,22.855-3.57Zm1.554-6.272c0-.1-.014-.112-.112-.112s-.378.028-1.372.028h-.434v-.336a2.6,2.6,0,0,1,.07-.854.6.6,0,0,0,.084-.252c0-.056-.07-.112-.168-.126-.266-.028-.49-.056-.826-.07a6.476,6.476,0,0,1,.084,1.3v.336h-.336c-.994,0-1.288-.028-1.358-.028-.112,0-.126.014-.126.112v.532c0,.1.014.112.126.112.07,0,.364-.028,1.358-.028h1.526c.994,0,1.288.028,1.372.028s.112-.014.112-.112ZM22.379-6.51a4.747,4.747,0,0,1-.9-1.19,1.693,1.693,0,0,1,.07-.252,1.718,1.718,0,0,1,.168-.462c.07-.084.084-.112.084-.168s-.056-.084-.126-.112c-.168-.056-.392-.112-.63-.168a3.923,3.923,0,0,1-.1.658,6.782,6.782,0,0,1-1.064,2.436,1.739,1.739,0,0,1,.364.266c.084.084.126.126.168.126s.07-.042.14-.154a9.965,9.965,0,0,0,.728-1.526,4.876,4.876,0,0,0,.546.924c.056.084.1.14.14.14s.07-.056.126-.154A1.557,1.557,0,0,1,22.379-6.51Zm1.442-1.456a1.127,1.127,0,0,1,.168-.434.2.2,0,0,0,.07-.154c0-.056-.056-.1-.168-.14a4.268,4.268,0,0,0-.588-.154,2.385,2.385,0,0,1-.084.644,5.3,5.3,0,0,1-.9,2,1.649,1.649,0,0,1,.35.266c.084.084.126.126.168.126s.084-.042.154-.154a6.305,6.305,0,0,0,.462-.924,5.692,5.692,0,0,0,.84,1.246c.084.084.126.14.154.14s.07-.056.14-.168a1.709,1.709,0,0,1,.28-.35,4.815,4.815,0,0,1-1.19-1.5ZM43.113-5.894c0-.1-.014-.112-.112-.112-.07,0-.518.028-1.848.028H37.527v-.938a17.259,17.259,0,0,0,3.416-2.59,1.61,1.61,0,0,1,.49-.35.308.308,0,0,0,.182-.238c0-.112-.07-.21-.378-.5-.224-.21-.322-.252-.392-.252a.3.3,0,0,0-.14.028.749.749,0,0,1-.252.042H34.475c-1.414,0-1.89-.028-1.974-.028s-.112.014-.112.112v.644c0,.1.014.112.112.112s.56-.028,1.974-.028h5.7a17.741,17.741,0,0,1-2.954,2.31c-.224-.042-.476-.07-.714-.1a9.566,9.566,0,0,1,.112,1.778H32.963c-1.33,0-1.778-.028-1.848-.028-.1,0-.112.014-.112.112v.672c0,.1.014.112.112.112.07,0,.518-.028,1.848-.028h3.654v4.116c0,.6-.28.854-.77.854a14.891,14.891,0,0,1-1.862-.084,2.128,2.128,0,0,1,.308.7c.07.294.07.28.35.28,1.288.014,2.044.014,2.436-.35a1.346,1.346,0,0,0,.476-1.232c0-.392-.028-.966-.028-1.988v-2.3h3.626c1.33,0,1.778.028,1.848.028.1,0,.112-.014.112-.112ZM48.979,1.33V-10.78h-.784V.6h-3.5V1.33ZM66.745-8.638c-2.2,1.162-3.416,2.786-3.416,4.76,0,2.828,2.548,3.836,4.914,4.046.154.014.2-.042.224-.2A4.188,4.188,0,0,0,68.551-.7c0-.112-.042-.14-.224-.154-2.044-.168-4.074-.854-4.074-3.178,0-1.876,1.568-3.6,3.612-4.41a5.8,5.8,0,0,1,2.044-.42c.14-.014.182-.042.182-.168a3.981,3.981,0,0,0-.084-.7c-.028-.084-.1-.126-.238-.112-3.752.462-6.594.882-8.68,1.218a10.949,10.949,0,0,1-1.736.168,7.751,7.751,0,0,0,.392.994.237.237,0,0,0,.2.126.777.777,0,0,0,.266-.1,3.013,3.013,0,0,1,.84-.238c1.764-.364,3.584-.658,5.684-.994Zm1.176,2.324a6.045,6.045,0,0,1,1.624,1.792.112.112,0,0,0,.182.028l.406-.336a.1.1,0,0,0,.028-.154,6.794,6.794,0,0,0-1.582-1.694.109.109,0,0,0-.14-.014Zm1.232-.938a6.687,6.687,0,0,1,1.61,1.75c.056.084.112.084.168.028l.378-.336c.07-.056.084-.1.042-.168a8.047,8.047,0,0,0-1.6-1.638c-.056-.042-.1-.028-.154.014ZM-69.118,12.39c.2-.28.35-.546.56-.882a1.556,1.556,0,0,1,.42-.476.205.205,0,0,0,0-.364,3.508,3.508,0,0,0-1.05-.49,4.17,4.17,0,0,1-.7,1.75A14.962,14.962,0,0,1-73.542,16a1.891,1.891,0,0,1,.714.294.3.3,0,0,0,.434-.028,20.275,20.275,0,0,0,2.772-3l4.032-.112a15.735,15.735,0,0,1-2.632,4.284,15.552,15.552,0,0,1-4.634,3.71,1.978,1.978,0,0,1,.784.406.237.237,0,0,0,.308.042A17.383,17.383,0,0,0-67.4,17.976a18.816,18.816,0,0,0,2.7-4.368,1.4,1.4,0,0,1,.364-.49c.112-.112.14-.252-.028-.42a4.07,4.07,0,0,0-.56-.462c-.154-.1-.266-.126-.364-.056-.154.112-.28.14-.7.154Zm4.186-1.638a6.045,6.045,0,0,1,1.624,1.792.112.112,0,0,0,.182.028l.406-.336a.1.1,0,0,0,.028-.154,6.794,6.794,0,0,0-1.582-1.694.11.11,0,0,0-.154,0Zm1.232-.938a6.687,6.687,0,0,1,1.61,1.75c.056.084.112.084.168.028l.378-.336c.07-.056.084-.1.042-.168A8.047,8.047,0,0,0-63.1,9.45c-.056-.042-.1-.028-.154.014Zm7.742,2.576c.2-.28.35-.546.56-.882a1.556,1.556,0,0,1,.42-.476.205.205,0,0,0,0-.364,3.508,3.508,0,0,0-1.05-.49,4.17,4.17,0,0,1-.7,1.75A14.963,14.963,0,0,1-60.382,16a1.891,1.891,0,0,1,.714.294.3.3,0,0,0,.434-.028,20.275,20.275,0,0,0,2.772-3l4.032-.112a15.735,15.735,0,0,1-2.632,4.284,15.552,15.552,0,0,1-4.634,3.71,1.978,1.978,0,0,1,.784.406.237.237,0,0,0,.308.042,17.383,17.383,0,0,0,4.368-3.626,18.816,18.816,0,0,0,2.7-4.368,1.4,1.4,0,0,1,.364-.49c.112-.112.14-.252-.028-.42a4.07,4.07,0,0,0-.56-.462c-.154-.1-.266-.126-.364-.056-.154.112-.28.14-.7.154Zm4.186-1.638a6.045,6.045,0,0,1,1.624,1.792.112.112,0,0,0,.182.028l.406-.336a.1.1,0,0,0,.028-.154,6.794,6.794,0,0,0-1.582-1.694.11.11,0,0,0-.154,0Zm1.232-.938a6.687,6.687,0,0,1,1.61,1.75c.056.084.112.084.168.028l.378-.336c.07-.056.084-.1.042-.168a8.047,8.047,0,0,0-1.6-1.638c-.056-.042-.1-.028-.154.014Zm4.8,5.908a5.254,5.254,0,0,0,.5.924.358.358,0,0,0,.252.154.743.743,0,0,0,.266-.126,3.164,3.164,0,0,1,.658-.35,12.655,12.655,0,0,1,4.13-1.12c1.246,0,2.072.616,2.072,1.862a2.324,2.324,0,0,1-1.4,2.24,9.581,9.581,0,0,1-3.206.924,1.914,1.914,0,0,1,.532.588.219.219,0,0,0,.28.14,9.155,9.155,0,0,0,2.9-.938,3.045,3.045,0,0,0,1.848-2.9,2.667,2.667,0,0,0-2.912-2.73,13.658,13.658,0,0,0-3.78.8A12.646,12.646,0,0,1-45.738,15.722Zm17.276-3.066c.154-.532.28-1.106.448-1.68a1.269,1.269,0,0,1,.224-.546.376.376,0,0,0,.112-.224.164.164,0,0,0-.112-.154,5.6,5.6,0,0,0-1.12-.322,5.626,5.626,0,0,1-.112,1.316c-.1.518-.21,1.022-.406,1.764a22.067,22.067,0,0,1-2.52.168,8.163,8.163,0,0,1-.882-.028c.042.28.084.574.112.77.028.126.056.14.224.14.952-.014,1.918-.07,2.828-.168a43.416,43.416,0,0,1-2.618,6.986.138.138,0,0,0,.056.182c.182.1.546.266.658.308s.154.042.21-.084a63.272,63.272,0,0,0,2.688-7.546,23.237,23.237,0,0,0,2.534-.574c.126-.028.154-.07.14-.21-.014-.168-.042-.406-.07-.574-.014-.1-.056-.126-.168-.1A16.9,16.9,0,0,1-28.462,12.656Zm.868,5.908a2.376,2.376,0,0,0,.686,1.89,4.387,4.387,0,0,0,3.08.77,12.73,12.73,0,0,0,1.834-.14c.112-.014.154-.042.154-.182a5.016,5.016,0,0,0-.056-.672c-.014-.112-.056-.112-.168-.1a15.017,15.017,0,0,1-2.072.182c-1.764,0-2.548-.42-2.646-1.68-.014-.112-.042-.14-.154-.14A4.4,4.4,0,0,0-27.594,18.564Zm1.05-2.926a12.225,12.225,0,0,1,2.576-.308,11.2,11.2,0,0,1,1.792.154c.126.028.168-.014.182-.182a4.366,4.366,0,0,0-.014-.616c-.014-.084-.042-.126-.21-.154a14.051,14.051,0,0,0-1.736-.14,11.163,11.163,0,0,0-2.45.294c-.154.042-.182.084-.182.21C-26.586,15.064-26.572,15.4-26.544,15.638Zm11-5.152a9.154,9.154,0,0,1,2.59,1.708c.084.084.154.084.224,0a4.324,4.324,0,0,0,.462-.6c.056-.1.056-.126-.028-.2a8.313,8.313,0,0,0-2.562-1.6.147.147,0,0,0-.2.042A4,4,0,0,0-15.54,10.486Zm-1.106,2.352A8.36,8.36,0,0,1-16.758,14a41.255,41.255,0,0,0-.406,4.4c0,.126.028.154.112.2a5.442,5.442,0,0,0,.574.252c.112.042.154.042.224-.07a3.478,3.478,0,0,1,.616-.826,6.286,6.286,0,0,1,4.158-2.184c1.484,0,2.114.77,2.114,1.764a2.506,2.506,0,0,1-1.68,2.31,11.27,11.27,0,0,1-3.808.868,2.235,2.235,0,0,1,.63.686c.07.154.14.154.364.126a10.382,10.382,0,0,0,3.4-.924,3.215,3.215,0,0,0,2.1-2.982c0-1.582-1.106-2.674-3.01-2.674a6.648,6.648,0,0,0-4.886,2.52,25.409,25.409,0,0,1,.406-3.206,1.81,1.81,0,0,1,.21-.658c.1-.126.084-.252-.084-.35A4.51,4.51,0,0,0-16.646,12.838ZM-.9,9.73a7.639,7.639,0,0,0-.28.756.135.135,0,0,0,.084.182,19.608,19.608,0,0,0,3.556,1.148.16.16,0,0,0,.182-.1,4.978,4.978,0,0,0,.21-.644c.028-.14.014-.182-.112-.21A22.692,22.692,0,0,1-.9,9.73Zm-2.66,4.312a5.93,5.93,0,0,0,.364.966c.056.112.112.168.182.168a.529.529,0,0,0,.252-.07,3.611,3.611,0,0,1,.574-.2c1.19-.252,2.366-.49,3.864-.8C.308,15.6-.728,16.744-1.61,17.668c-.63.644-1.638,1.68-2.674,2.73a.18.18,0,0,0-.028.252,6.394,6.394,0,0,0,.546.49.169.169,0,0,0,.224-.014c.63-.742,1.456-1.722,2.17-2.408A2.428,2.428,0,0,1,.21,17.906c.644,0,.882.532,1.078,1.526.28,1.4.9,1.848,2.912,1.848a11.962,11.962,0,0,0,2-.182c.126-.014.182-.056.182-.154a4.68,4.68,0,0,0-.056-.686c-.014-.126-.056-.168-.168-.14a11.556,11.556,0,0,1-2.072.21c-1.512,0-1.778-.21-2.044-1.526-.2-1.008-.756-1.554-1.484-1.554a1.886,1.886,0,0,0-.826.2c.994-1.05,1.946-2.072,2.954-3.094a2.1,2.1,0,0,1,.49-.364.255.255,0,0,0,.154-.224.346.346,0,0,0-.1-.21,3.826,3.826,0,0,0-.518-.448c-.07-.042-.1-.07-.154-.07a.244.244,0,0,0-.168.056,1.471,1.471,0,0,1-.434.168c-.644.154-1.484.322-2.6.5A16.252,16.252,0,0,1-3.556,14.042ZM13.1,9.73a7.639,7.639,0,0,0-.28.756.135.135,0,0,0,.084.182,19.608,19.608,0,0,0,3.556,1.148.16.16,0,0,0,.182-.1,4.978,4.978,0,0,0,.21-.644c.028-.14.014-.182-.112-.21A22.692,22.692,0,0,1,13.1,9.73Zm-2.66,4.312a5.929,5.929,0,0,0,.364.966c.056.112.112.168.182.168a.529.529,0,0,0,.252-.07,3.611,3.611,0,0,1,.574-.2c1.19-.252,2.366-.49,3.864-.8-1.372,1.484-2.408,2.632-3.29,3.556-.63.644-1.638,1.68-2.674,2.73a.18.18,0,0,0-.028.252,6.394,6.394,0,0,0,.546.49.169.169,0,0,0,.224-.014c.63-.742,1.456-1.722,2.17-2.408a2.428,2.428,0,0,1,1.582-.812c.644,0,.882.532,1.078,1.526.28,1.4.9,1.848,2.912,1.848a11.962,11.962,0,0,0,2-.182c.126-.014.182-.056.182-.154a4.68,4.68,0,0,0-.056-.686c-.014-.126-.056-.168-.168-.14a11.556,11.556,0,0,1-2.072.21c-1.512,0-1.778-.21-2.044-1.526-.2-1.008-.756-1.554-1.484-1.554a1.886,1.886,0,0,0-.826.2c.994-1.05,1.946-2.072,2.954-3.094a2.1,2.1,0,0,1,.49-.364.255.255,0,0,0,.154-.224.346.346,0,0,0-.1-.21,3.826,3.826,0,0,0-.518-.448c-.07-.042-.1-.07-.154-.07a.244.244,0,0,0-.168.056,1.471,1.471,0,0,1-.434.168c-.644.154-1.484.322-2.6.5A16.252,16.252,0,0,1,10.444,14.042Zm15.288-.266c-.112-.336-.21-.574-.364-1.05-.168-.532-.238-.742-.28-.924a1.082,1.082,0,0,1-.042-.406c0-.126-.014-.21-.182-.21a6.384,6.384,0,0,0-1.19.126,5.407,5.407,0,0,1,.672,1.288c.21.56.378,1.036.546,1.54-.7.294-1.176.462-1.708.672a8.679,8.679,0,0,1-1.414.406,4.96,4.96,0,0,0,.588.868.335.335,0,0,0,.238.14.346.346,0,0,0,.21-.112,3.162,3.162,0,0,1,.756-.434c.5-.224.98-.434,1.652-.728.826,2.254,1.47,4.228,2.184,6.538.028.084.042.1.126.084a2.667,2.667,0,0,0,.686-.252c.14-.07.14-.112.084-.252-.756-2.212-1.484-4.256-2.268-6.5.854-.364,1.722-.728,2.646-1.036a6.652,6.652,0,0,1,2.226-.406c.77,0,1.624.308,1.624,1.428,0,1.26-1.078,1.806-2.478,1.806a6.988,6.988,0,0,1-1.246-.112,2.534,2.534,0,0,1,.406.8.227.227,0,0,0,.224.14,5.065,5.065,0,0,0,.658.028c2.016,0,3.444-.854,3.444-2.59,0-1.484-1.022-2.338-2.632-2.338a7.882,7.882,0,0,0-2.66.532C27.356,13.118,26.6,13.412,25.732,13.776Zm1.638-3.318a5.8,5.8,0,0,1,1.652,1.484.126.126,0,0,0,.182.042,2.8,2.8,0,0,0,.532-.462.152.152,0,0,0,0-.21,7.206,7.206,0,0,0-1.512-1.33c-.1-.056-.126-.056-.21,0A7.3,7.3,0,0,0,27.37,10.458ZM37.87,16.8c.826-1.47,1.764-3.262,2.73-5.068a1.811,1.811,0,0,1,.42-.574.242.242,0,0,0-.028-.406,5.118,5.118,0,0,0-1.008-.532,6.153,6.153,0,0,1-.546,1.61c-.966,2.058-2.45,5.012-4.256,8.54-.056.1-.056.168.028.238a2.744,2.744,0,0,0,.616.364c.126.056.2.042.252-.1A15.726,15.726,0,0,1,37.8,17.78a2.687,2.687,0,0,1,1.932-1.2c.742,0,1.064.546,1.218,1.96.182,1.708.658,2.534,2,2.534a3.022,3.022,0,0,0,2.45-1.232,6.361,6.361,0,0,0,1.106-1.9c.056-.168.042-.28-.07-.364a1.793,1.793,0,0,1-.5-.742,6.752,6.752,0,0,1-1.176,2.31,2.236,2.236,0,0,1-1.792.966c-.784,0-1.008-.686-1.12-1.876-.14-1.414-.588-2.422-1.974-2.422A2.853,2.853,0,0,0,37.9,16.828Zm12.292-1.078a5.254,5.254,0,0,0,.5.924.358.358,0,0,0,.252.154.743.743,0,0,0,.266-.126,3.164,3.164,0,0,1,.658-.35,12.655,12.655,0,0,1,4.13-1.12c1.246,0,2.072.616,2.072,1.862a2.324,2.324,0,0,1-1.4,2.24,9.581,9.581,0,0,1-3.206.924,1.914,1.914,0,0,1,.532.588.219.219,0,0,0,.28.14,9.155,9.155,0,0,0,2.9-.938A3.045,3.045,0,0,0,59,17.122a2.667,2.667,0,0,0-2.912-2.73,13.658,13.658,0,0,0-3.78.8A12.646,12.646,0,0,1,50.162,15.722Zm19.95-3.444c-2.2,1.162-3.416,2.786-3.416,4.76,0,2.828,2.548,3.836,4.914,4.046.154.014.2-.042.224-.2a4.188,4.188,0,0,0,.084-.672c0-.112-.042-.14-.224-.154-2.044-.168-4.074-.854-4.074-3.178,0-1.876,1.568-3.6,3.612-4.41a5.8,5.8,0,0,1,2.044-.42c.14-.014.182-.042.182-.168a3.981,3.981,0,0,0-.084-.7c-.028-.084-.1-.126-.238-.112-3.752.462-6.594.882-8.68,1.218a10.949,10.949,0,0,1-1.736.168,7.751,7.751,0,0,0,.392.994.237.237,0,0,0,.2.126.777.777,0,0,0,.266-.1,3.013,3.013,0,0,1,.84-.238c1.764-.364,3.584-.658,5.684-.994ZM-30.842,39.942c0-.63.028-.91.028-.98,0-.112-.014-.126-.112-.126-.07,0-.546.028-1.946.028H-37.1c-1.4,0-1.876-.028-1.96-.028s-.112.014-.112.126c0,.07.028.35.028,1.134v.77c0,1.652-.028,1.9-.028,1.988s.014.112.112.112h.63c.112,0,.126-.014.126-.112v-.588h6.622V42.8c0,.1.014.112.112.112h.644c.1,0,.112-.014.112-.112s-.028-.35-.028-1.96Zm-.84,1.582H-38.3V39.606h6.622Zm2.772-8.456c0-.1-.014-.112-.112-.112-.07,0-.518.028-1.834.028H-39.1c-1.316,0-1.764-.028-1.834-.028-.1,0-.112.014-.112.112v.616c0,.1.014.112.112.112.07,0,.518-.028,1.834-.028h8.246c1.316,0,1.764.028,1.834.028.1,0,.112-.014.112-.112Zm-1.82-1.918c0-.112-.014-.126-.112-.126-.07,0-.546.028-1.946.028h-4.4c-1.4,0-1.876-.028-1.946-.028-.1,0-.112.014-.112.126v.574c0,.1.014.112.112.112.07,0,.546-.028,1.946-.028h4.4c1.4,0,1.876.028,1.946.028.1,0,.112-.014.112-.112Zm-.294,3.892c0-.1-.014-.112-.112-.112-.07,0-.532.028-1.9.028h-3.892c-1.372,0-1.82-.028-1.9-.028s-.112.014-.112.112v.588c0,.1.014.112.112.112s.532-.028,1.9-.028h3.892c1.372,0,1.834.028,1.9.028.1,0,.112-.014.112-.112Zm0,1.932c0-.1-.014-.112-.112-.112-.07,0-.532.028-1.9.028h-3.892c-1.372,0-1.82-.028-1.9-.028s-.112.014-.112.112v.588c0,.1.014.112.112.112s.532-.028,1.9-.028h3.892c1.372,0,1.834.028,1.9.028.1,0,.112-.014.112-.112Zm7.28-6.16a4.737,4.737,0,0,1,.112,1.232c-.028.826-.028,1.344-.056,1.89-.812.238-1.372.378-1.974.546a5.693,5.693,0,0,1-.924.14,5.518,5.518,0,0,0,.392.77c.1.126.154.2.238.182.112-.014.28-.182.588-.294.476-.168,1.12-.378,1.666-.532,0,.336-.028.77-.042,1.232-1.064,1.5-2.072,2.842-3.122,4.1-.07.084-.084.154-.014.224a5.9,5.9,0,0,0,.518.5c.084.056.154.042.238-.056.784-1.106,1.54-2.212,2.38-3.388-.014,1.862-.028,3.346-.056,5.068,0,.1.028.126.112.126.252,0,.616-.014.742-.028.07-.014.112-.042.112-.126-.028-1.834-.056-3.57-.042-5.348a6.208,6.208,0,0,1,4.242-1.946,2.243,2.243,0,0,1,2.338,2.45,3.031,3.031,0,0,1-.854,2.128,5.83,5.83,0,0,1-2.926,1.554,2.165,2.165,0,0,1,.672.5.315.315,0,0,0,.406.1c2.548-.756,3.71-2.506,3.71-4.228a3.137,3.137,0,0,0-3.332-3.3,6.54,6.54,0,0,0-4.256,1.792c0-.252,0-.476.014-.784a7.756,7.756,0,0,1,.686-1.008c.126-.14.182-.21.182-.294a.52.52,0,0,0-.182-.308c-.126-.126-.21-.182-.266-.182a.151.151,0,0,0-.1.042.821.821,0,0,1-.224.112c.028-.672.07-1.162.1-1.792a2.084,2.084,0,0,1,.126-.546c.07-.168.056-.294-.1-.35A5.193,5.193,0,0,0-23.744,30.814ZM-9.87,37.8c.826-1.47,1.764-3.262,2.73-5.068a1.811,1.811,0,0,1,.42-.574.242.242,0,0,0-.028-.406,5.118,5.118,0,0,0-1.008-.532A6.153,6.153,0,0,1-8.3,32.83c-.966,2.058-2.45,5.012-4.256,8.54-.056.1-.056.168.028.238a2.744,2.744,0,0,0,.616.364c.126.056.2.042.252-.1A15.726,15.726,0,0,1-9.94,38.78a2.687,2.687,0,0,1,1.932-1.2c.742,0,1.064.546,1.218,1.96.182,1.708.658,2.534,2,2.534a3.022,3.022,0,0,0,2.45-1.232,6.361,6.361,0,0,0,1.106-1.9c.056-.168.042-.28-.07-.364a1.793,1.793,0,0,1-.5-.742,6.752,6.752,0,0,1-1.176,2.31,2.236,2.236,0,0,1-1.792.966c-.784,0-1.008-.686-1.12-1.876-.14-1.414-.588-2.422-1.974-2.422a2.853,2.853,0,0,0-1.974,1.022ZM4.62,31.038a5.144,5.144,0,0,1,.308,1.372,25.019,25.019,0,0,0,.742,3.584c-1.778,1.078-2.73,2.114-2.73,3.458,0,1.918,1.75,2.45,4.172,2.45a31.154,31.154,0,0,0,3.724-.2c.154-.014.21-.07.2-.2a6.089,6.089,0,0,0-.084-.728c-.028-.112-.07-.14-.2-.126a26.9,26.9,0,0,1-3.6.294c-2.114.014-3.29-.294-3.29-1.54,0-.98.658-1.708,2.072-2.534.952-.546,2.156-1.12,3.178-1.6a5.319,5.319,0,0,1,1.232-.448c.252-.028.28-.224.168-.392a5.942,5.942,0,0,0-.714-.784,2.27,2.27,0,0,1-.812.644c-.826.462-1.666.854-2.492,1.26a18.75,18.75,0,0,1-.546-2.828c-.042-.308-.07-.588-.084-.9,0-.224.07-.35.07-.49a.2.2,0,0,0-.168-.182A6.38,6.38,0,0,0,4.62,31.038Zm11.354,1.4a5.941,5.941,0,0,1,.112,1.344,30.721,30.721,0,0,0,.252,3.906c.308,2.2,1.19,3.822,2.366,3.822.938,0,1.694-1.064,2.086-2.2a.312.312,0,0,0-.112-.35,1.78,1.78,0,0,1-.462-.7c-.406,1.3-.938,2.2-1.5,2.2-.672,0-1.274-1.2-1.484-2.856a22.353,22.353,0,0,1-.2-3.178,4.816,4.816,0,0,1,.112-1.288,1.039,1.039,0,0,0,.056-.252c0-.056-.042-.112-.126-.154A3.849,3.849,0,0,0,15.974,32.438Zm7.168,1.75a8.157,8.157,0,0,1,2.632,4.858.129.129,0,0,0,.182.112,2.772,2.772,0,0,0,.644-.322.16.16,0,0,0,.1-.182,8.489,8.489,0,0,0-2.73-4.844c-.056-.056-.126-.042-.21,0A5.721,5.721,0,0,0,23.142,34.188Zm13.65-.91c-2.2,1.162-3.416,2.786-3.416,4.76,0,2.828,2.548,3.836,4.914,4.046.154.014.2-.042.224-.2a4.188,4.188,0,0,0,.084-.672c0-.112-.042-.14-.224-.154-2.044-.168-4.074-.854-4.074-3.178,0-1.876,1.568-3.6,3.612-4.41a5.8,5.8,0,0,1,2.044-.42c.14-.014.182-.042.182-.168a3.981,3.981,0,0,0-.084-.7c-.028-.084-.1-.126-.238-.112-3.752.462-6.594.882-8.68,1.218a10.949,10.949,0,0,1-1.736.168,7.752,7.752,0,0,0,.392.994.237.237,0,0,0,.2.126.777.777,0,0,0,.266-.1,3.013,3.013,0,0,1,.84-.238c1.764-.364,3.584-.658,5.684-.994Z" transform="translate(87 42)"/></svg>